# xmcd CD database file
#
# Track frame offsets:
#	150
#	20440
#	37427
#	59017
#	76937
#	104679
#	121822
#	137875
#	162557
#	176267
#	189285
#	203175
#
# Disc length: 2857 seconds
#
# Revision: 0
# Processed by: cddbd v1.5.2PL0 Copyright (c) Steve Scherf et al.
# Submitted via: CDex 1.70beta2
#
DISCID=ab0b270c
DTITLE=Carolyn Cruso - Transformation
DYEAR=1998
DGENRE=New Age
TTITLE0=Under the Cedars
TTITLE1=Trinity
TTITLE2=Mad Farmers Love Song
TTITLE3=Cloudbreak
TTITLE4=The Lovers Waltz - The Old Bus Jig
TTITLE5=The Pomegranate Seed - The Canopy
TTITLE6=Baba Yagas
TTITLE7=Fire Sister
TTITLE8=Ontankarana Circle
TTITLE9=You and Me Is a Rhythm
TTITLE10=Flat Iron
TTITLE11=Lament
EXTD=YEAR: 1998
EXTT0=
EXTT1=
EXTT2=
EXTT3=
EXTT4=
EXTT5=
EXTT6=
EXTT7=
EXTT8=
EXTT9=
EXTT10=
EXTT11=
PLAYORDER=
